<?xml version="1.0" encoding="UTF-8"?>
<svg width="72px" height="75px" viewBox="0 0 72 75" version="1.1" xmlns="http://www.w3.org/2000/svg" xmlns:xlink="http://www.w3.org/1999/xlink">
    <!-- Generator: Sketch 53 (72520) - https://sketchapp.com -->
    <title>Group</title>
    <desc>Created with Sketch.</desc>
    <g id="Page-1" stroke="none" stroke-width="1" fill="none" fill-rule="evenodd">
        <g id="Artboard" transform="translate(-158.000000, -61.000000)" fill="#4B53C1">
            <g id="Group" transform="translate(137.893424, 53.239907)">
                <path d="M51.4479598,47.4686313 C51.543094,48.2701351 68.7271074,47.1096008 103,43.9870284 L99.120347,34.6542696 C97.4243608,30.5744642 92.7421566,28.6419969 88.6623512,30.3379831 C88.4696144,30.4181043 88.2800871,30.5057378 88.0942043,30.6006824 C84.2915059,32.5430136 81.7373754,33.842479 80.431813,34.4990786 C54.0828906,47.7506041 33.5666607,57.0140519 18.8831233,62.2894221 C18.8831233,62.2894221 18.8831233,62.2894221 18.8831233,62.2894221 L18.8831233,62.2894221 C15.1303743,63.6376762 10.9951942,61.688448 9.6469401,57.935699 C8.29868594,54.18295 10.2479141,50.04777 14.0006631,48.6995158 C14.7314624,48.4369608 15.4998315,48.2940165 16.2761594,48.2761918 L51.4479598,47.4686313 Z" id="Rectangle" transform="translate(52.000000, 47.000000) rotate(-36.000000) translate(-52.000000, -47.000000) "></path>
                <path d="M52.218763,48.3338421 C52.3008396,49.1353459 67.1262629,47.9748116 96.695033,44.8522391 L93.7527058,36.6482385 C92.261137,32.4893437 87.6805312,30.3270487 83.5216364,31.8186176 C83.0450872,31.9895298 82.5858378,32.2052927 82.1500677,32.4630031 C79.7875793,33.860157 78.1457035,34.8272524 77.2244403,35.3642894 C54.4920366,48.6158149 36.7917598,57.8792627 24.12361,63.1546329 C24.12361,63.1546329 24.12361,63.1546329 24.12361,63.1546329 L24.12361,63.1546329 C20.413138,64.6997767 16.1526197,62.9444314 14.6074759,59.2339594 C13.0623321,55.5234875 14.8176774,51.2629691 18.5281493,49.7178253 C19.3545632,49.3736836 20.2373785,49.1849669 21.1322674,49.1611512 L52.218763,48.3338421 Z" id="Rectangle-Copy" transform="translate(52.695033, 47.865211) rotate(-120.000000) translate(-52.695033, -47.865211) "></path>
            </g>
        </g>
    </g>
</svg>