
<svg width="674px" height="411px" viewBox="0 0 674 411" version="1.1" xmlns="http://www.w3.org/2000/svg" xmlns:xlink="http://www.w3.org/1999/xlink">
    <defs>
        <linearGradient x1="26.3995644%" y1="84.5467062%" x2="81.5102593%" y2="27.8928302%" id="linearGradient-1">
            <stop stop-color="#FFA17F" offset="0%"></stop>
            <stop stop-color="#FFDC5A" offset="100%"></stop>
        </linearGradient>
        <linearGradient x1="19.1826629%" y1="0%" x2="59.3844365%" y2="58.3646177%" id="linearGradient-2">
            <stop stop-color="#D549F5" offset="0%"></stop>
            <stop stop-color="#7328C1" offset="100%"></stop>
        </linearGradient>
        <linearGradient x1="19.1826629%" y1="0%" x2="59.3844365%" y2="58.3646177%" id="linearGradient-3">
            <stop stop-color="#A40909" offset="0%"></stop>
            <stop stop-color="#AC0849" offset="100%"></stop>
        </linearGradient>
        <linearGradient x1="6.59024239%" y1="45.2626744%" x2="98.4146419%" y2="55.3859005%" id="linearGradient-4">
            <stop stop-color="#3F3F3F" stop-opacity="0.5" offset="0%"></stop>
            <stop stop-color="#757575" stop-opacity="0.5" offset="100%"></stop>
        </linearGradient>
        <linearGradient x1="6.17882311%" y1="45.2173173%" x2="98.4146419%" y2="55.3859005%" id="linearGradient-5">
            <stop stop-color="#3F3F3F" stop-opacity="0.5" offset="0.44605152%"></stop>
            <stop stop-color="#757575" stop-opacity="0.5" offset="100%"></stop>
        </linearGradient>
        <linearGradient x1="19.1826629%" y1="0%" x2="59.2677189%" y2="58.1951681%" id="linearGradient-6">
            <stop stop-color="#3A5920" offset="0%"></stop>
            <stop stop-color="#4E9B10" offset="100%"></stop>
        </linearGradient>
        <linearGradient x1="19.1826629%" y1="0%" x2="60.3337084%" y2="59.7427632%" id="linearGradient-7">
            <stop stop-color="#4C78FF" offset="0%"></stop>
            <stop stop-color="#1B3D8C" offset="100%"></stop>
        </linearGradient>
    </defs>
    <g id="Page-1" stroke="none" stroke-width="1" fill="none" fill-rule="evenodd">
        <g id="Artboard" transform="translate(-2494.000000, -1419.000000)">
            <g id="design" transform="translate(2482.000000, 1409.000000)">
                <rect id="Rectangle" opacity="0" x="4.54747351e-13" y="0" width="698.941696" height="457.256971"></rect>
                <ellipse id="Oval" fill="url(#linearGradient-1)" cx="344" cy="215.5" rx="206" ry="205.5"></ellipse>
                <ellipse id="Oval" fill="url(#linearGradient-1)" cx="344" cy="215.5" rx="206" ry="205.5"></ellipse>
                <g id="code" transform="translate(260.000000, 146.000000)">
                    <rect id="Rectangle" fill-opacity="0.5" fill="#BABABA" x="0" y="0.888586957" width="189" height="143"></rect>
                    <rect id="Rectangle" fill-opacity="0.634588068" fill="#662A02" x="13" y="71.888587" width="48" height="39"></rect>
                    <rect id="Rectangle" fill-opacity="0.634588068" fill="#662A02" x="0" y="0.888586957" width="189" height="38"></rect>
                    <rect id="Rectangle" fill-opacity="0.634588068" fill="#662A02" x="13" y="54.888587" width="48" height="9"></rect>
                    <rect id="Rectangle" fill-opacity="0.634588068" fill="#662A02" x="14" y="119.888587" width="163" height="9"></rect>
                    <rect id="Rectangle" fill-opacity="0.634588068" fill="#662A02" x="148" y="90.888587" width="26" height="21"></rect>
                    <circle id="Oval" fill="#C33E34" cx="109.5" cy="81.388587" r="26.5"></circle>
                    <path d="M160.254695,44.888587 L139.848941,47.850044 L119,80.888587 L158.809668,80.888587 C166.104527,70.1143899 169.832723,62.7151329 169.994258,58.6908159 C170.155792,54.6664989 166.909271,50.0657559 160.254695,44.888587 Z" id="Path-5" fill="#FF7474"></path>
                </g>
                <circle id="Oval" fill="url(#linearGradient-2)" cx="157.5" cy="56.5" r="12.5"></circle>
                <circle id="Oval" fill="url(#linearGradient-3)" cx="96.5" cy="351.5" r="17.5"></circle>
                <path d="M161.727441,157.591146 C140.392976,150.211355 114.779661,146.52146 84.8874944,146.52146 C54.9953282,146.52146 36.9403016,151.132821 30.7224148,160.355541 C22.6801337,171.822287 30.4873354,185.774624 54.1440199,202.212552 C149.206099,268.266765 268.947586,308.884036 329.178185,326.195706 C391.774188,344.187249 429.482118,357.024735 551.520442,366.013861 C582.685109,368.309394 607.467352,368.309394 625.867171,366.013861 C668.598566,358.090125 681.173657,344.817407 663.592444,326.195706 C646.011232,307.574006 608.653898,287.048016 551.520442,264.617737" id="Path-6" stroke="url(#linearGradient-4)" stroke-width="7" transform="translate(349.470848, 257.128486) rotate(-15.000000) translate(-349.470848, -257.128486) "></path>
                <path d="M153.404235,164.458018 C132.06977,157.078228 106.456454,153.388333 76.5642882,153.388333 C46.672122,153.388333 28.6170954,157.999693 22.3992085,167.222414 C14.3569275,178.689159 22.1641292,192.641496 45.8208136,209.079425 C140.882893,275.133638 260.62438,315.750908 320.854978,333.062579 C383.450981,351.054121 421.158911,363.891608 543.197235,372.880733 C574.361902,375.176267 599.144145,375.176267 617.543964,372.880733 C660.27536,364.956998 672.850451,351.684279 655.269238,333.062579 C637.688026,314.440878 600.330691,293.914888 543.197235,271.484609" id="Path-6" stroke="url(#linearGradient-5)" stroke-width="7" transform="translate(341.147642, 263.995358) rotate(-1.000000) translate(-341.147642, -263.995358) "></path>
                <circle id="Oval" fill="url(#linearGradient-6)" cx="522.5" cy="369.5" r="12.5"></circle>
                <circle id="Oval" fill="url(#linearGradient-7)" cx="631" cy="223" r="22"></circle>
                <polygon id="Rectangle" fill="#987676" transform="translate(478.561866, 164.790706) rotate(-37.000000) translate(-478.561866, -164.790706) " points="416.839591 152.713464 517.065011 169.050054 540.28414 176.867948 416.839591 166.713464"></polygon>
                <path d="M182,257 C194.150264,257 224.869691,245.965258 224.869691,221.388587 C224.869691,212.8078 197.826544,223.206829 192.434845,215 C182.383903,199.70123 189.908078,168 182,168 C169.849736,168 160,187.923329 160,212.5 C160,222.143164 176.423201,223.10065 179,230.388587 C182.990459,241.674765 174.617142,257 182,257 Z" id="Oval" fill-opacity="0.5" fill="#E88F8F"></path>
                <path d="M273.247498,106.585676 C285.397763,106.585676 331.773987,121.965258 331.773987,97.388587 C331.773987,88.8078002 288.295995,101.029343 282.904296,92.8225149 C272.853354,77.523745 296.812374,44 288.904296,44 C282.730959,44 253.165479,71.0531013 240.094183,89.5170468 C227.438757,107.393551 231.139791,116.62951 232.860163,120.777056 C237.752368,132.571391 268.942292,106.585676 273.247498,106.585676 Z" id="Oval" fill-opacity="0.5" fill="#E8D88F"></path>
                <path d="M302.921971,384.75952 C315.072236,384.75952 332.614436,364.11723 327.222738,355.910401 C317.171796,340.611631 326.486846,322.173844 318.578769,322.173844 C315.19915,322.173844 289.099949,313.558734 278.243159,323.926676 C269.268534,332.497199 275.684016,359.335109 269.768655,367.690891 C257.11323,385.567395 286.67788,362.667411 288.398252,366.814957 C293.290457,378.609292 298.616765,384.75952 302.921971,384.75952 Z" id="Oval" fill-opacity="0.5" fill="#FF8F8F" transform="translate(297.426663, 351.787676) rotate(-57.000000) translate(-297.426663, -351.787676) "></path>
                <path d="M438.753641,129.607724 C450.903905,129.607724 468.446106,108.965433 463.054407,100.758605 C453.003465,85.4598349 462.318516,67.0220478 454.410438,67.0220478 C451.03082,67.0220478 424.931619,58.4069376 414.074828,68.7748791 C405.100204,77.3454029 451.407218,79.8268171 445.491857,88.1825989 C432.836432,106.059103 405.949555,77.5954555 407.669927,81.7430018 C412.562132,93.5373365 434.448435,129.607724 438.753641,129.607724 Z" id="Oval" fill-opacity="0.5" fill="#F7FF6D" transform="translate(435.824056, 96.635880) rotate(-57.000000) translate(-435.824056, -96.635880) "></path>
                <path d="M494.396727,325.659098 C505.386794,325.659098 521.253935,313.763994 516.377076,309.034815 C507.285872,300.218911 515.711453,289.59415 508.558497,289.59415 C506.365688,289.59415 504.507232,302.196548 493.839964,302.957629 C489.636421,303.257541 474.850287,288.915396 472.074431,290.604218 C463.95677,295.542975 464.725019,295.687068 466.281117,298.077089 C470.706178,304.873565 490.502614,325.659098 494.396727,325.659098 Z" id="Oval" fill-opacity="0.5" fill="#FF9C4A" transform="translate(491.283920, 307.626624) rotate(-57.000000) translate(-491.283920, -307.626624) "></path>
            </g>
        </g>
    </g>
</svg>