
<svg width="596px" height="511px" viewBox="0 0 596 511" version="1.1" xmlns="http://www.w3.org/2000/svg" xmlns:xlink="http://www.w3.org/1999/xlink">
    <defs>
        <linearGradient x1="16.8455827%" y1="32.9980302%" x2="117.71231%" y2="113.196051%" id="linearGradient-1">
            <stop stop-color="#D6DFFF" offset="0%"></stop>
            <stop stop-color="#A42A70" offset="100%"></stop>
        </linearGradient>
        <linearGradient x1="19.1826629%" y1="0%" x2="59.6994123%" y2="58.8218971%" id="linearGradient-2">
            <stop stop-color="#5E5E5E" offset="0%"></stop>
            <stop stop-color="#ADADAD" offset="100%"></stop>
        </linearGradient>
        <radialGradient cx="50%" cy="50%" fx="50%" fy="50%" r="107.66271%" id="radialGradient-3">
            <stop stop-color="#7479FF" offset="0%"></stop>
            <stop stop-color="#006094" offset="100%"></stop>
        </radialGradient>
        <radialGradient cx="50%" cy="50%" fx="50%" fy="50%" r="111.354137%" id="radialGradient-4">
            <stop stop-color="#D864E7" offset="0%"></stop>
            <stop stop-color="#153905" offset="100%"></stop>
        </radialGradient>
        <linearGradient x1="50%" y1="0%" x2="50%" y2="100%" id="linearGradient-5">
            <stop stop-color="#B8B8B8" offset="0%"></stop>
            <stop stop-color="#E2E2E2" offset="100%"></stop>
        </linearGradient>
        <linearGradient x1="50%" y1="0%" x2="50%" y2="100%" id="linearGradient-6">
            <stop stop-color="#B8B8B8" offset="0%"></stop>
            <stop stop-color="#E2E2E2" offset="100%"></stop>
        </linearGradient>
        <linearGradient x1="50%" y1="0%" x2="50%" y2="100%" id="linearGradient-7">
            <stop stop-color="#B8B8B8" offset="0%"></stop>
            <stop stop-color="#E2E2E2" offset="100%"></stop>
        </linearGradient>
        <linearGradient x1="50%" y1="0%" x2="50%" y2="100%" id="linearGradient-8">
            <stop stop-color="#B8B8B8" offset="0%"></stop>
            <stop stop-color="#E2E2E2" offset="100%"></stop>
        </linearGradient>
        <linearGradient x1="50%" y1="0%" x2="50%" y2="100%" id="linearGradient-9">
            <stop stop-color="#B8B8B8" offset="0%"></stop>
            <stop stop-color="#E2E2E2" offset="100%"></stop>
        </linearGradient>
        <linearGradient x1="50%" y1="0%" x2="50%" y2="100%" id="linearGradient-10">
            <stop stop-color="#B8B8B8" offset="0%"></stop>
            <stop stop-color="#E2E2E2" offset="100%"></stop>
        </linearGradient>
        <linearGradient x1="50%" y1="0%" x2="50%" y2="100%" id="linearGradient-11">
            <stop stop-color="#B8B8B8" offset="0%"></stop>
            <stop stop-color="#E2E2E2" offset="100%"></stop>
        </linearGradient>
        <linearGradient x1="50%" y1="0%" x2="50%" y2="100%" id="linearGradient-12">
            <stop stop-color="#B8B8B8" offset="0%"></stop>
            <stop stop-color="#E2E2E2" offset="100%"></stop>
        </linearGradient>
        <linearGradient x1="50%" y1="0%" x2="50%" y2="100%" id="linearGradient-13">
            <stop stop-color="#B8B8B8" offset="0%"></stop>
            <stop stop-color="#E2E2E2" offset="100%"></stop>
        </linearGradient>
        <linearGradient x1="50%" y1="0%" x2="50%" y2="100%" id="linearGradient-14">
            <stop stop-color="#B8B8B8" offset="0%"></stop>
            <stop stop-color="#E2E2E2" offset="100%"></stop>
        </linearGradient>
    </defs>
    <g id="Page-1" stroke="none" stroke-width="1" fill="none" fill-rule="evenodd">
        <g id="Artboard" transform="translate(-2003.000000, -1054.000000)">
            <g id="illustration" transform="translate(1993.000000, 1044.000000)">
                <rect id="Rectangle" opacity="0" x="0" y="0.0173774286" width="626.713351" height="530.982623"></rect>
                <ellipse id="Oval" fill="url(#linearGradient-1)" cx="247" cy="315.5" rx="206" ry="205.5"></ellipse>
                <circle id="Oval" fill="url(#linearGradient-2)" cx="98" cy="84" r="22"></circle>
                <circle id="Oval" fill="url(#radialGradient-3)" cx="25.5" cy="364.5" r="15.5"></circle>
                <circle id="Oval" fill="url(#radialGradient-4)" cx="458.5" cy="433.5" r="15.5"></circle>
                <polygon id="Rectangle" fill-opacity="0.4" fill="#D8D8D8" points="145.953413 355 390 355 360.673975 418 114 418"></polygon>
                <g id="robot" transform="translate(148.000000, 211.000000)">
                    <path d="M9,61 L9,42.99808 C16.6776452,14.3326933 35.8443119,-4.302308e-14 66.5,0 C97.1556881,-4.44109213e-14 116.322355,14.3326933 124,42.99808 L124,61 L9,61 Z" id="Path-3" fill="#3D3D3D"></path>
                    <circle id="Oval" fill-opacity="0.5" fill="#C0C0C0" cx="67" cy="31" r="12"></circle>
                    <path d="M84,48.5 L112,48.5" id="Path-2" stroke="#FFFFFF" stroke-width="8" stroke-linecap="round" stroke-linejoin="round"></path>
                    <polygon id="Path-4" fill="#3D3D3D" points="9.50451424 66 124.058923 66 124.058923 147.398357 133 168 103.38183 168 113.26868 147.398357 113.26868 128.765515 79.0375395 128.765515 75.7336485 147.398357 89.579613 167.942399 47.3650062 168 60.2321288 147.398357 55.0261351 128.765515 21.7961797 128.765515 21.7961797 147.398357 34.2271982 168 0 167.942399 9.50451424 147.398357"></polygon>
                    <circle id="Oval" fill-opacity="0.5" fill="#C0C0C0" cx="104" cy="84" r="6"></circle>
                </g>
                <g id="robot" transform="translate(247.000000, 316.000000)">
                    <path d="M0,14.2727167 C25.7658389,4.75757222 45.0991723,-1.53950926e-14 58,-5.68434189e-14 C70.9008277,-1.53950926e-14 90.2341611,4.75757222 116,14.2727167 L116,70 L0.0449499352,70 L0,14.2727167 Z" id="Path-4" fill="#DFDFDF"></path>
                    <circle id="Oval" fill="#8A8A8A" cx="26" cy="68" r="9"></circle>
                    <circle id="Oval" fill="#8A8A8A" cx="91" cy="68" r="9"></circle>
                    <path d="M25,28 L91,28" id="Path-2" stroke="#3D3D3D" stroke-width="10" stroke-linecap="round" stroke-linejoin="round"></path>
                </g>
                <g id="robot" transform="translate(302.000000, 240.000000)">
                    <circle id="Oval" fill="#777474" cx="22" cy="22" r="22"></circle>
                    <circle id="Oval" fill-opacity="0.5" fill="#FFFFFF" cx="22" cy="14" r="6"></circle>
                </g>
                <g id="iconfinder_rocket_353437" transform="translate(241.849827, 65.517377) rotate(-360.000000) translate(-241.849827, -65.517377) translate(201.849827, 10.017377)" fill-rule="nonzero">
                    <path d="M39.4626994,0.141723046 C39.4626994,0.141723046 17.9626994,16.6321978 17.9626994,57.1410405 C17.9626994,83.1215555 25.9112748,99.3651795 36.2610713,102.141723 L36.2610713,75.9924212 C36.2610713,74.2454773 37.6932663,72.8276678 39.4626994,72.8276678 C41.2321325,72.8276678 42.6643275,74.2454773 42.6643275,75.9924212 L42.6643275,102.141723 C53.014124,99.3672893 60.9626994,83.1215555 60.9626994,57.1410405 C60.9626994,16.1638143 39.4626994,0.141723046 39.4626994,0.141723046 Z M39.210838,31.4052663 C35.520428,31.4052663 31.9153947,31.0782418 28.7223043,30.4811584 C31.8492277,20.5206247 36.2589369,13.8113476 39.5032534,9.88705348 C42.7390322,13.7628214 47.1273971,20.4130231 50.2329764,30.3841059 C46.9160897,31.0465943 43.1168243,31.4052663 39.210838,31.4052663 Z" id="Shape" fill="#707070"></path>
                    <path d="M12.2423295,74.6831511 C5.53435948,74.6831511 0.0979368434,79.1249867 0.0979368434,84.6041756 L0.0979368434,110.683151 L22.0979368,95.1100454 C18.8342986,89.782404 16.3960508,82.8645812 14.9571946,74.6831511 L12.2423295,74.6831511 Z" id="Path" fill="#FF6464"></path>
                    <path d="M67.0302048,74.6958902 L64.3175704,74.6958902 C62.8787142,82.8773203 60.4404664,89.7951431 57.1768282,95.1227845 L79.1768282,110.69589 L79.1768282,84.6169147 C79.1745974,79.1377258 73.7381748,74.6958902 67.0302048,74.6958902 Z" id="Path" fill="#FF6464"></path>
                </g>
                <path d="M484,183 C433.444749,183 403.069764,164.587737 392.875044,127.763211 C381.361464,86.1748081 317.621182,127.763211 317.621182,88.1607401 C317.621182,76.7991493 300.080788,76.0059523 265,85.7811492" id="Line-2" stroke="#979797" stroke-width="2" stroke-linecap="square" stroke-dasharray="10"></path>
                <g id="astronot" transform="translate(520.856675, 206.065881) rotate(-43.000000) translate(-520.856675, -206.065881) translate(464.856675, 125.565881)">
                    <circle id="Oval" fill="url(#linearGradient-5)" cx="52.8257919" cy="19.5867928" r="19.5"></circle>
                    <path d="M43.9908406,37.3650817 C38.8945583,40.1339649 35.1762328,42.5454983 32.8358639,44.5996818 C30.4954951,46.6538654 27.9416899,49.7474932 25.1744483,53.8805653 C22.8966252,51.9487951 20.9389611,50.541415 19.3014562,49.6584251 C17.6639513,48.7754352 14.9863016,47.6833202 11.268507,46.3820803 L3.09809594,57.4897947 C7.80167109,61.0430033 11.4928658,63.4942543 14.1716801,64.8435474 C16.8504944,66.1928406 20.5180838,67.0670833 25.1744483,67.4662756 C29.4451343,67.2503621 32.5294962,66.6533378 34.427534,65.6752025 C36.3255719,64.6970673 38.6752362,62.874775 41.476527,60.2083257 L48.5472183,94.2083257 L92.66565,86.4112056 L81.6356696,50.3217112 C86.1701677,51.8293002 89.5015792,52.5830948 91.6299038,52.5830948 C93.7582285,52.5830948 96.0934742,51.6082049 98.6356409,49.6584251 C100.749568,46.9828552 102.317841,44.6071991 103.340462,42.5314568 C104.363083,40.4557144 105.282294,36.9668783 106.098096,32.0649483 L94.5745132,26.2083257 C92.8251558,27.8860029 91.4696784,29.484111 90.5080812,31.0026501 C89.5464839,32.5211892 88.3975407,34.878022 87.0612517,38.0731485 C83.3995447,35.9921747 80.5050814,34.6796161 78.3778619,34.1354728 C76.2506424,33.5913294 72.7815163,33.2760802 67.9704838,33.1897249" id="Path-7" fill="url(#linearGradient-6)"></path>
                    <path d="M49.2568492,94.8951976 C48.9854497,101.684701 48.9854497,106.837584 49.2568492,110.353848 C49.5282487,113.870111 49.9164607,117.997196 50.4214851,122.735102 C53.0082497,130.174689 54.9807102,135.166337 56.3388665,137.710047 C57.6970228,140.253757 60.2067661,144.049551 63.8680964,149.097429 L80.6139601,141.81392 C76.4282894,136.003824 73.5968054,131.653553 72.1195081,128.763109 C70.6422108,125.872665 69.4401552,122.331009 68.5133412,118.138142 C68.8445874,113.707879 69.3561063,110.475252 70.0478978,108.44026 C70.7396892,106.405267 72.2634313,104.649124 74.619124,103.171829 C78.4944103,104.040701 81.2036188,105.214925 82.7467496,106.6945 C84.2898804,108.174075 85.9429723,110.506161 87.7060255,113.690759 C89.4891729,119.232272 90.6450089,123.424312 91.1735337,126.266881 C91.7020584,129.109449 92.1105006,133.330579 92.3988602,138.930269 L107.543806,139.723239 C108.223131,127.40378 108.223131,119.560783 107.543806,116.194246 C106.864481,112.82771 105.770479,109.44897 104.2618,106.058025 L93.1665098,87.0974285" id="Path-8" fill="url(#linearGradient-7)"></path>
                    <path d="M12.1739608,46.4723936 C7.62012695,43.8935834 4.10521417,44.2728525 1.62922243,47.610201 C-0.846769315,50.9475495 -0.163259572,54.3395714 3.67975166,57.7862669" id="Path-9" fill="url(#linearGradient-8)"></path>
                    <path d="M83.7584796,141.378728 C75.5748127,138.76086 70.0186601,139.679757 67.0900219,144.13542 C64.9944203,147.323691 66.4343137,151.030154 68.9264944,153.721218 C69.5869501,154.434381 71.2913857,155.474226 74.0398012,156.840756" id="Path-9" fill="url(#linearGradient-9)" transform="translate(74.919685, 148.383100) rotate(-146.000000) translate(-74.919685, -148.383100) "></path>
                    <path d="M108.945724,139.846435 C101.32813,135.284649 96.054502,135.230984 93.1248388,139.685439 C91.0285037,142.872847 91.4308407,147.228632 95.2492115,150.276993 C97.1799123,151.81835 99.3581822,152.560632 101.784021,152.503841" id="Path-9" fill="url(#linearGradient-10)" transform="translate(100.406198, 144.445618) rotate(-117.000000) translate(-100.406198, -144.445618) "></path>
                    <path d="M106.684181,22.9656099 C102.809591,20.2402502 99.6811811,20.5248479 97.2989523,23.8194031 C94.9167236,27.1139583 95.5272558,30.3258896 99.130549,33.4551971" id="Path-9" fill="url(#linearGradient-11)" transform="translate(101.280474, 27.285027) rotate(80.000000) translate(-101.280474, -27.285027) "></path>
                    <path d="M49.8404037,123.408431 L67.8404037,118.408431" id="Path-10" fill="url(#linearGradient-12)"></path>
                    <path d="M88.3148779,117.488744 L106.366532,112.070506" id="Path-10" fill="url(#linearGradient-13)" transform="translate(97.340705, 114.779625) rotate(19.000000) translate(-97.340705, -114.779625) "></path>
                    <path d="M83.752529,141.375817 C75.5688621,138.757948 70.0127095,139.676845 67.0840713,144.132508 C64.9884697,147.32078 66.4545324,151.590626 68.9467131,154.28169 C69.6071688,154.994853 71.0090128,155.847268 73.1522453,156.838936" id="Path-9" fill="url(#linearGradient-14)" transform="translate(74.917154, 148.380734) rotate(-146.000000) translate(-74.917154, -148.380734) "></path>
                    <path d="M53.1280563,48.3730164 L72.6781876,48.3690855 C75.9918961,48.3686726 78.6785223,51.0546293 78.6789352,54.3683378 C78.6789353,54.3688361 78.6789353,54.3693344 78.6789352,54.3698327 L78.675081,61.3105075 C78.6746684,64.6236322 75.9889534,67.3093474 72.6758287,67.3097602 L53.1256976,67.3151862 C49.8119891,67.3155991 47.1253629,64.6296423 47.12495,61.3159339 C47.1249499,61.3154356 47.1249499,61.3149373 47.12495,61.314439 L47.1288042,54.3737642 C47.1292168,51.0606395 49.8149318,48.3749243 53.1280565,48.3745115 Z" id="Rectangle" fill="#797878" transform="translate(62.901943, 57.842136) rotate(-12.000000) translate(-62.901943, -57.842136) "></path>
                    <path d="M52.4220731,33.4590723 C61.1343649,33.4580724 68.1977784,27.307112 68.1986485,19.7205177 C68.1995187,12.1339234 60.8586201,9.78216163 52.1463283,9.78316152 C43.4340365,9.7841614 36.6495191,12.1375443 36.6486489,19.7241386 C36.6477787,27.3107329 43.7097813,33.4600722 52.4220731,33.4590723 Z" id="Oval" fill="#141414" transform="translate(52.423649, 21.621117) rotate(-11.000000) translate(-52.423649, -21.621117) "></path>
                    <polygon id="Rectangle" fill="#D8D8D8" transform="translate(63.127070, 17.173729) rotate(-16.000000) translate(-63.127070, -17.173729) " points="60.4568137 15.2272061 65.7973254 14.8519633 64.8591054 19.4954955 60.7145122 19.3146999"></polygon>
                    <path d="M63.0791525,20.8556349 L66.6853609,21.1107943 C65.8558506,23.311985 65.083775,24.7950396 64.3691341,25.5599583 C61.8984805,28.204432 58.9841729,29.2628084 58.6088777,29.2464373 C58.2026692,29.2287176 60.0255248,28.0391451 61.9307043,24.8607498 C62.3431836,24.1726139 62.7259997,22.8375756 63.0791525,20.8556349 Z" id="Rectangle" fill="#D8D8D8" transform="translate(62.618489, 25.051129) rotate(-16.000000) translate(-62.618489, -25.051129) "></path>
                    <circle id="Oval" fill="#797878" cx="50.8874839" cy="45.1258406" r="2.5"></circle>
                    <circle id="Oval" fill="#797878" cx="64.9222938" cy="41.8055831" r="2.5"></circle>
                </g>
            </g>
        </g>
    </g>
</svg>