
<svg width="849px" height="849px" viewBox="0 0 849 849" version="1.1" xmlns="http://www.w3.org/2000/svg" xmlns:xlink="http://www.w3.org/1999/xlink">
    <g id="Page-1" stroke="none" stroke-width="1" fill="none" fill-rule="evenodd">
        <g id="Logos" transform="translate(-5626.000000, 10.000000)">
            <g id="Logo-Alternate-2" transform="translate(5636.000000, 0.000000)">
                <circle id="Oval" stroke="#090054" stroke-width="20" stroke-linecap="round" cx="414.5" cy="414.5" r="414.5"></circle>
                <g id="Stars" transform="translate(104.447390, 78.059271)" fill="#090054">
                    <polygon id="Star" transform="translate(34.418065, 288.094426) rotate(-21.000000) translate(-34.418065, -288.094426) " points="34.4180651 300.594426 18.5478633 308.319851 21.5788021 291.957138 8.73953913 280.369001 26.4829642 277.981714 34.4180651 263.094426 42.353166 277.981714 60.096591 280.369001 47.257328 291.957138 50.2882669 308.319851"></polygon>
                    <polygon id="Star" transform="translate(113.227012, 87.235871) rotate(-6.000000) translate(-113.227012, -87.235871) " points="113.227012 96.4858711 101.471307 102.202685 103.716446 90.0942783 94.2058813 81.5190567 107.349159 79.7524639 113.227012 68.7358711 119.104864 79.7524639 132.248142 81.5190567 122.737577 90.0942783 124.982717 102.202685"></polygon>
                    <polygon id="Star" transform="translate(315.846851, 26.076271) rotate(23.000000) translate(-315.846851, -26.076271) " points="315.846851 35.5762707 303.797253 41.4475936 306.098522 29.0119321 296.350193 20.2049478 309.822052 18.3906092 315.846851 7.07627066 321.87165 18.3906092 335.34351 20.2049478 325.59518 29.0119321 327.896449 41.4475936"></polygon>
                    <polygon id="Star" transform="translate(289.482196, 254.840156) rotate(18.000000) translate(-289.482196, -254.840156) " points="289.482196 262.590156 279.783739 267.37992 281.63598 257.235038 273.789763 250.050393 284.632968 248.570275 289.482196 239.340156 294.331424 248.570275 305.174628 250.050393 297.328412 257.235038 299.180653 267.37992"></polygon>
                    <polygon id="Star" transform="translate(566.189315, 318.647962) rotate(18.000000) translate(-566.189315, -318.647962) " points="566.189315 326.647962 556.490858 331.592234 558.343098 321.120098 550.496882 313.70369 561.340086 312.175826 566.189315 302.647962 571.038543 312.175826 581.881747 313.70369 574.035531 321.120098 575.887771 331.592234"></polygon>
                </g>
                <g id="Moon" transform="translate(487.000000, 135.000000)">
                    <circle id="Oval" stroke="#090054" stroke-width="20" cx="101.763359" cy="101.5" r="101.5"></circle>
                    <circle id="Oval" fill="#090054" cx="93.7633592" cy="44.5" r="9.5"></circle>
                    <ellipse id="Oval" fill="#090054" cx="116.263359" cy="91.5" rx="7" ry="7.5"></ellipse>
                    <ellipse id="Oval" fill="#090054" cx="164.263359" cy="146" rx="6" ry="5"></ellipse>
                    <circle id="Oval" fill="#090054" cx="155.263359" cy="162" r="3"></circle>
                    <circle id="Oval" fill="#090054" cx="167.763359" cy="84.5" r="14.5"></circle>
                    <ellipse id="Oval" fill="#090054" cx="96.2633592" cy="136.5" rx="7" ry="7.5"></ellipse>
                    <ellipse id="Oval" fill="#090054" cx="75.2633592" cy="150.5" rx="7" ry="7.5"></ellipse>
                    <circle id="Oval" fill="#090054" cx="98.7633592" cy="168.5" r="4.5"></circle>
                    <ellipse id="Oval" fill="#090054" transform="translate(43.404255, 96.308108) rotate(71.000000) translate(-43.404255, -96.308108) " cx="43.4042553" cy="96.3081079" rx="4.34898618" ry="4.3414414"></ellipse>
                    <ellipse id="Oval" fill="#090054" transform="translate(30.382979, 87.608108) rotate(71.000000) translate(-30.382979, -87.608108) " cx="30.3829787" cy="87.6081079" rx="4.34898618" ry="4.3414414"></ellipse>
                    <ellipse id="Oval" fill="#090054" transform="translate(25.319149, 104.283108) rotate(71.000000) translate(-25.319149, -104.283108) " cx="25.3191489" cy="104.283108" rx="2.17449309" ry="2.1707207"></ellipse>
                    <ellipse id="Oval" fill="#090054" transform="translate(46.543814, 37.564614) rotate(71.000000) translate(-46.543814, -37.564614) " cx="46.5438144" cy="37.5646136" rx="2.17449309" ry="2.1707207"></ellipse>
                    <ellipse id="Oval" fill="#090054" transform="translate(147.820410, 37.564614) rotate(71.000000) translate(-147.820410, -37.564614) " cx="147.82041" cy="37.5646136" rx="2.17449309" ry="2.1707207"></ellipse>
                    <ellipse id="Oval" stroke="#979797" fill="#090054" cx="131.763359" cy="44.5" rx="8.5" ry="9.5"></ellipse>
                </g>
                <g id="Big-Wave" transform="translate(34.171273, 471.000000)" stroke="#090054" stroke-linecap="round" stroke-linejoin="round" stroke-width="20">
                    <path d="M0,84.5425502 C65.6923922,28.1808501 129.259311,3.48165941e-12 190.700757,3.48165941e-12 C212.265316,3.48165941e-12 178.61881,30.3885124 189.539149,55.3923906 C195.05255,68.0162147 211.92597,79.2675042 253,84.5425502" id="Path-22"></path>
                    <path d="M253,84.5425502 C318.692392,28.1808501 382.259311,-1.56319402e-13 443.700757,-1.56319402e-13 C465.265316,-1.56319402e-13 431.61881,30.3885124 442.539149,55.3923906 C448.05255,68.0162147 464.92597,79.2675042 506,84.5425502" id="Path-22"></path>
                    <path d="M507,84.5425502 C572.692392,28.1808501 636.259311,-1.56319402e-13 697.700757,-1.56319402e-13 C719.265316,-1.56319402e-13 685.61881,30.3885124 696.539149,55.3923906 C702.05255,68.0162147 718.92597,79.2675042 760,84.5425502" id="Path-22"></path>
                </g>
                <g id="Med-Wave" transform="translate(88.000000, 580.000000)" stroke="#00FFF0" stroke-linecap="round" stroke-linejoin="round" stroke-width="20">
                    <path d="M0,72.639849 C56.3448582,24.213283 110.866682,3.64508423e-12 163.565472,3.64508423e-12 C182.061555,3.64508423e-12 153.202695,26.1101298 162.569151,47.593725 C167.298037,58.4402477 181.770496,68.107474 217,72.639849" id="Path-22"></path>
                    <path d="M217,72.639849 C273.604512,24.213283 328.377588,1.42108547e-14 381.31923,1.42108547e-14 C399.900549,1.42108547e-14 370.908698,26.1101298 380.318318,47.593725 C385.068996,58.4402477 399.608148,68.107474 435,72.639849" id="Path-22"></path>
                    <path d="M436,72.639849 C492.344858,24.213283 546.866682,1.42108547e-14 599.565472,1.42108547e-14 C618.061555,1.42108547e-14 589.202695,26.1101298 598.569151,47.593725 C603.298037,58.4402477 617.770496,68.107474 653,72.639849" id="Path-22"></path>
                </g>
                <g id="Small-Wave" transform="translate(172.000000, 686.000000)" stroke="#7ABDFF" stroke-linecap="round" stroke-width="20">
                    <path d="M0,53.9514958 C41.8042496,17.9838319 82.2559254,2.25242047e-12 121.355027,2.25242047e-12 C135.077928,2.25242047e-12 113.666516,19.3926691 120.615822,35.3490913 C124.12435,43.4050844 134.861981,50.5851836 161,53.9514958" id="Path-22"></path>
                    <path d="M161,53.9514958 C203.063903,17.9838319 243.766832,-1.42108547e-14 283.108785,-1.42108547e-14 C296.916921,-1.42108547e-14 275.372519,19.3926691 282.364988,35.3490913 C285.895309,43.4050844 296.699633,50.5851836 323,53.9514958" id="Path-22"></path>
                    <path d="M324,53.9514958 C365.80425,17.9838319 406.255925,-1.42108547e-14 445.355027,-1.42108547e-14 C459.077928,-1.42108547e-14 437.666516,19.3926691 444.615822,35.3490913 C448.12435,43.4050844 458.861981,50.5851836 485,53.9514958" id="Path-22"></path>
                </g>
            </g>
        </g>
    </g>
</svg>